<svg id="Layer_1" data-name="Layer 1" xmlns="http://www.w3.org/2000/svg" viewBox="0 0 112.2 75.82"><defs><style>.cls-1{fill:none;stroke:#231f20;stroke-miterlimit:10;}</style></defs><rect class="cls-1" x="4.28" y="27.36" width="42.96" height="42.96" rx="21.48"/><rect class="cls-1" x="6.69" y="29.35" width="38.34" height="39.1" rx="19.17"/><line class="cls-1" x1="26.65" y1="29.37" x2="24.8" y2="68.42"/><line class="cls-1" x1="6.71" y1="47.57" x2="45" y2="50.34"/><line class="cls-1" x1="40.17" y1="35.8" x2="11.42" y2="61.85"/><line class="cls-1" x1="13.16" y1="34.19" x2="38.47" y2="63.68"/><line class="cls-1" x1="17.33" y1="66.43" x2="33.74" y2="31.06"/><line class="cls-1" x1="44.1" y1="42.64" x2="7.57" y2="55"/><line class="cls-1" x1="8.55" y1="40.31" x2="42.98" y2="57.87"/><line class="cls-1" x1="32.2" y1="67.36" x2="19.37" y2="30.49"/><rect class="cls-1" x="65.19" y="27.62" width="42.96" height="42.96" rx="21.48"/><rect class="cls-1" x="67.6" y="29.6" width="38.34" height="39.1" rx="19.17"/><line class="cls-1" x1="87.56" y1="29.62" x2="85.7" y2="68.67"/><line class="cls-1" x1="67.62" y1="47.82" x2="105.9" y2="50.59"/><line class="cls-1" x1="101.08" y1="36.06" x2="72.33" y2="62.1"/><line class="cls-1" x1="74.07" y1="34.44" x2="99.38" y2="63.93"/><line class="cls-1" x1="78.23" y1="66.68" x2="94.65" y2="31.31"/><line class="cls-1" x1="105" y1="42.89" x2="68.48" y2="55.26"/><line class="cls-1" x1="69.45" y1="40.57" x2="103.88" y2="58.12"/><line class="cls-1" x1="93.11" y1="67.61" x2="80.28" y2="30.74"/><path class="cls-1" d="M64.77,29.18,28.12,17.47l2.27-8.24c.8-2.87,3.07-1.59,3.07-1.59l-1.37,7.55,32.68,9.75,2.17-6.8a13.94,13.94,0,0,0-8.6,0c-3,2-3.66-2.26-3.66-2.26-1-5.39,15.93-3.67,15.93-3.67,7.57-.23,6.65,3.32,6.65,3.32-1.6,5.62-5.93,2.61-5.93,2.61L68.2,25.28l-.11,4.95Z"/><path class="cls-1" d="M31.43,7.36l-11.1,6.86c-.92,3.21,1.61,2.17,1.61,2.17L38.47,4.13c0-1.26-1.63,0-1.63,0Z"/></svg>