<svg id="Layer_1" data-name="Layer 1" xmlns="http://www.w3.org/2000/svg" viewBox="0 0 158.06 97.83"><defs><style>.cls-1{fill:none;stroke:#231f20;stroke-miterlimit:10;}</style></defs><path class="cls-1" d="M15.9,74.29c-27.21-31.79,0-58.54,0-58.54C43.41-7.64,63.59,19,63.59,19c16.82,22.62,4.89,30.57,4.89,30.57a31.89,31.89,0,0,1-24-.15c4.28,16.05,21,10.85,21,10.85,2.29,10.09-13.15,16.66-13.15,16.66"/><path class="cls-1" d="M52.59,32.56c9.78-6.57,14.21,0,14.21,0"/><path class="cls-1" d="M86.62,69.05c-2.3-10.69,4.25-13.78,4.25-13.78C106.49,60.93,113.54,53,113.54,53c-8.53-.52-19.7-7.15-19.7-7.15L89.53,43C95.61,16.64,126,19.43,130.81,21c34.82,10.93,17.62,48.66,17.62,48.66C140,85.4,121.38,90.18,121.38,90.18"/><path class="cls-1" d="M109.61,28.31C120.39,26.77,119.84,36,119.84,36"/></svg>