<svg id="Layer_1" data-name="Layer 1" xmlns="http://www.w3.org/2000/svg" viewBox="0 0 232.97 317.81"><defs><style>.cls-1{fill:none;}.cls-1,.cls-2,.cls-3{stroke:#231f20;stroke-miterlimit:10;}.cls-2{fill:#fff;}.cls-3{fill:#484349;}</style></defs><path class="cls-1" d="M122.47,246C12.55,246,21.4,143.54,21.4,143.54,31.8-2.9,124.43,6.21,124.43,6.21,223.84,6.21,218,139.54,218,139.54,208.2,250.07,122.47,246,122.47,246Z"/><path class="cls-1" d="M52.57,83.09C62.37,59,80.71,69.55,80.71,69.55c30,12.84.29,22.93.29,22.93C52,96.15,52.57,83.09,52.57,83.09Z"/><path class="cls-2" d="M89.89,135s2.14-2.72-4.33-.89c0,0-11.91,3-14-8.25,0,0-1.87-10,22.56-42.72"/><path class="cls-2" d="M99.67,135c2.77-5.86,24.92,2.14,16,2.14"/><path class="cls-2" d="M55.57,77.12c-.13,15.21,15.94,9.26,15.94,9.26,13.94-7.25,6.74-17.67,6.74-17.67"/><path class="cls-2" d="M49.22,73.53c2.34-21.31,24.68-27.67,30.6-24.46"/><path class="cls-2" d="M172.13,63.75c-23.2-14.79-34-13.31-34-13.31"/><path class="cls-2" d="M62.37,172.59c10.7-9.48,56.56-4.9,56.56-4.9,26,.31,19.57,3.67,19.57,3.67"/><path class="cls-2" d="M83.06,178.54c6.46,2.75,22.09,1.84,22.09,1.84"/><path class="cls-1" d="M122.6,79.34c-.61-11.62,12.76-16.76,16.6-17.43,26.2-4.59,24.37,15.21,24.37,15.21-2.14,13.22-32.41,8.4-32.41,8.4-10.4-1.6-8.56-6.18-8.56-6.18"/><path class="cls-2" d="M123.45,73.8C126,86.38,143,80.87,143,80.87c15.34-8.26,4.64-19.63,4.64-19.63"/><path class="cls-3" d="M57,75c.95,12.85,15,6.69,15,6.69,7-4.84,1.34-14.37,1.34-14.37C63.29,66.5,57,75,57,75Z"/><path class="cls-3" d="M125.18,70.59c4.76,13.33,15.3,7.07,15.3,7.07,8.56-6.73,3.37-13.91,3.37-13.91a5.48,5.48,0,0,0-4.65-1.84l-8.51,3.59"/><path class="cls-2" d="M75.51,71.66c2.76,5.84,4.31.88,4.31.88"/><path class="cls-2" d="M145.25,67.24c.74,5.37,4.25,1.47,4.25,1.47,2.3-4.51.72-3.49.72-3.49-2-3.3-3.77-1.47-3.77-1.47C143.69,66.8,145.25,67.24,145.25,67.24Z"/><path class="cls-2" d="M94.1,82.07c3.81-9.16-1.23-18.32-1.23-18.32"/><path class="cls-2" d="M86.52,226.09s8.87-6.73,8.87-17a77,77,0,0,0-18.29-20.3s-1.89-2.45-9.26,0l-29,20.3c-14.07,6-10.9,12.49-10.9,12.49"/><path class="cls-2" d="M88.36,233.43s11.61-9.48,7-16.82L80.11,197s-3.68-5.5-11-1.52L36.69,216.61c-10.4,4-10.4,7.64-10.4,7.64-3.36,19.88-12.23,46.48-12.23,46.48-3.67,24,5,34.09,5,34.09"/><path class="cls-2" d="M35.46,226.09,69.4,210.5c8.87-2.45,10.71,3.25,10.71,3.25L92,233.43C93.86,238,82.81,246,82.81,246l-5.71,4.55"/><path class="cls-2" d="M66.57,257.37s-1.91-.1-6,7.39c0,0-4.44,7.49,3.31,8.72a77.33,77.33,0,0,1,9.49-7.34s5.23-2.6,5.84-10.55c0,0-2.08-2.9-5.65-18.19,0,0,.15-4.74-9.68-5.25,0,0-8.1.67-28.39-4.22-7-1.69-7.84,4.43-7.84,4.43"/><path class="cls-2" d="M45.86,250.71C56,253.41,67.41,247,67.41,247"/><path class="cls-2" d="M62.83,249.37c3.21,11,7.49,10.2,7.49,10.2"/><path class="cls-2" d="M54.57,251.38c4.59,22.1,2,27.55,1.9,26.23"/><path class="cls-2" d="M36.23,225.74c-9.17,2-5.87,2.56-5.87,2.56"/><path class="cls-2" d="M58.36,231.57a42,42,0,0,0,11-5.83c5.31-3.84,4.72-7.22,4.72-7.22"/><path class="cls-2" d="M74.6,241.8a20,20,0,0,1,5.28-7.8"/><path class="cls-2" d="M73.13,221.83C69,228,82,235,82,235"/><path class="cls-2" d="M94.2,243.35c-19,17.13-18.84,31.5-18.84,31.5,1.38,14.37-13.14,20.49-13.14,20.49"/></svg>