<svg id="Layer_1" data-name="Layer 1" xmlns="http://www.w3.org/2000/svg" viewBox="0 0 36.47 33.28"><defs><style>.cls-1{font-size:36px;fill:#484349;font-family:Raleway-Light, Raleway;font-weight:300;}.cls-2{letter-spacing:-0.01em;}.cls-3{fill:#972587;}</style></defs><text class="cls-1" transform="translate(-84.65 31.76)"><tspan class="cls-2">S</tspan><tspan x="21.56" y="0">tabl</tspan><tspan class="cls-3" x="83.77" y="0">e</tspan></text><path class="cls-3" d="M1.76,21.14c8.42-5.8,16.49-12.08,24.55-18.38,3.79-3,7.21-2.74,9.36,1.91a1.43,1.43,0,0,1-2.62,1.15,1.53,1.53,0,0,1-.11-.72c.23-2.52-1.75-4.24-4.25-3.27s-4.24,2.78-6.27,4.25c-1.35,1-2.69,2.1-4,3.17-4,3.18-8,6.4-11.85,9.73-1.3,1.1-2.6,2.2-3.87,3.34a.75.75,0,1,1-.92-1.18Z"/></svg>