<svg id="Layer_1" data-name="Layer 1" xmlns="http://www.w3.org/2000/svg" viewBox="0 0 157.53 91.26"><defs><style>.cls-1{fill:#fff;stroke:#231f20;stroke-miterlimit:10;}</style></defs><polyline class="cls-1" points="3.44 12.99 90.42 2.9 102.19 47.39 13.99 63.13 3.44 13.76"/><path class="cls-1" d="M14.75,64.36l89-16,49.53,6.26c2.6,2.6,0,4,0,4L73,86.52,14.75,67.41Z"/><polygon class="cls-1" points="117.4 62.14 95.39 68.22 81.4 65.18 102.19 60.53 117.4 62.14"/><polyline class="cls-1" points="22.82 64.36 103.76 49.19 131.04 52.62 45.98 70.97 22.82 64.89"/><line class="cls-1" x1="26.39" y1="65.83" x2="106.28" y2="50.33"/><line class="cls-1" x1="31.55" y1="67.18" x2="112.24" y2="50.9"/><line class="cls-1" x1="37.15" y1="68.22" x2="117.4" y2="51.59"/><line class="cls-1" x1="42.08" y1="69.36" x2="123.02" y2="52.17"/><line class="cls-1" x1="30.73" y1="63.13" x2="55.19" y2="68.98"/><line class="cls-1" x1="38.98" y1="61.33" x2="64.16" y2="67.05"/><line class="cls-1" x1="46.57" y1="59.9" x2="71.9" y2="65.38"/><line class="cls-1" x1="54.43" y1="58.43" x2="73.49" y2="62.03"/><line class="cls-1" x1="62.6" y1="56.9" x2="82.55" y2="60.23"/><line class="cls-1" x1="71.29" y1="55.27" x2="92.91" y2="58.56"/><line class="cls-1" x1="79.71" y1="53.69" x2="106.76" y2="57.86"/><line class="cls-1" x1="87.85" y1="52.17" x2="116.42" y2="55.78"/><line class="cls-1" x1="95.96" y1="50.65" x2="123.02" y2="54.35"/><polyline class="cls-1" points="5.39 14.45 15.48 61.33 100.43 46.32 89.31 4.13 5.39 13.87"/></svg>