<svg id="Layer_1" data-name="Layer 1" xmlns="http://www.w3.org/2000/svg" viewBox="0 0 200 50"><defs><style>.cls-1{font-size:36px;fill:#484349;font-family:Raleway-Light, Raleway;font-weight:300;}.cls-2{letter-spacing:-0.01em;}.cls-3,.cls-5,.cls-6,.cls-7{fill:#eb388d;}.cls-3{letter-spacing:-0.01em;}.cls-4{letter-spacing:-0.02em;}.cls-5{letter-spacing:-0.01em;}.cls-7{opacity:0.34;}</style></defs><text class="cls-1" transform="translate(11.33 37.16)"><tspan class="cls-2">S</tspan><tspan x="21.56" y="0">tabl</tspan><tspan class="cls-3" x="83.77" y="0">e</tspan><tspan class="cls-4" x="104.25" y="0">y</tspan><tspan class="cls-5" x="123.05" y="0">e</tspan><tspan x="143.71" y="0">z</tspan></text><path class="cls-6" d="M97.73,26.53c8.43-5.8,16.5-12.08,24.56-18.38,3.78-3,7.21-2.73,9.35,1.91A1.43,1.43,0,0,1,129,11.21a1.38,1.38,0,0,1-.11-.72c.23-2.52-1.76-4.24-4.25-3.27s-4.24,2.78-6.28,4.25c-1.34,1-2.68,2.1-4,3.17-4,3.18-8,6.4-11.86,9.73-1.29,1.11-2.59,2.21-3.87,3.35a.76.76,0,0,1-1.06-.06.77.77,0,0,1,.14-1.13Z"/><path class="cls-6" d="M153,27.17c8.43-5.8,16.5-12.08,24.56-18.38,3.78-3,7.21-2.73,9.35,1.91a1.43,1.43,0,0,1-2.61,1.15,1.4,1.4,0,0,1-.11-.72c.23-2.52-1.76-4.24-4.25-3.27s-4.24,2.78-6.28,4.25c-1.34,1.05-2.68,2.1-4,3.17-4,3.18-8,6.4-11.86,9.73-1.29,1.1-2.59,2.21-3.86,3.35a.76.76,0,1,1-.93-1.19Z"/><path class="cls-7" d="M101.61,31.05a5.88,5.88,0,0,1-.91-7.53,7,7,0,0,1,7.41-2.72c1.87.73,2.57,1.62,2.84,2.35h0c.5.19.49,1,.07,2.25a4.4,4.4,0,0,1-2.1.85c-1.71.19-2.58-.87-3.86-.66-.72.12-1.65.66-2.53,2.54.87,1.43.94,2.66.4,3C102.86,31.19,102.5,31.41,101.61,31.05Z"/><path class="cls-7" d="M140.56,31.05a5.87,5.87,0,0,1-.92-7.53,7,7,0,0,1,7.41-2.72c1.87.73,2.58,1.62,2.84,2.35h0c.5.19.49,1,.07,2.25a4.4,4.4,0,0,1-2.1.85c-1.71.19-2.58-.87-3.85-.66-.72.12-1.65.66-2.54,2.54.88,1.43.94,2.66.4,3C141.8,31.19,141.44,31.41,140.56,31.05Z"/></svg>