<svg id="Layer_1" data-name="Layer 1" xmlns="http://www.w3.org/2000/svg" viewBox="0 0 200 50"><defs><style>.cls-1{font-size:36px;fill:#484349;font-family:Raleway-Light, Raleway;font-weight:300;}.cls-2{letter-spacing:-0.01em;}.cls-3,.cls-5,.cls-6{fill:#972587;}.cls-3{letter-spacing:-0.01em;}.cls-4{letter-spacing:-0.02em;}.cls-5{letter-spacing:-0.01em;}</style></defs><text class="cls-1" transform="translate(11.33 37.16)"><tspan class="cls-2">S</tspan><tspan x="21.56" y="0">tabl</tspan><tspan class="cls-3" x="83.77" y="0">e</tspan><tspan class="cls-4" x="104.25" y="0">y</tspan><tspan class="cls-5" x="123.05" y="0">e</tspan><tspan x="143.71" y="0">z</tspan></text><text/><path class="cls-6" d="M97.73,26.53c8.43-5.8,16.5-12.08,24.56-18.38,3.78-3,7.21-2.73,9.35,1.91A1.43,1.43,0,0,1,129,11.21a1.38,1.38,0,0,1-.11-.72c.23-2.52-1.76-4.24-4.25-3.27s-4.24,2.78-6.28,4.25c-1.34,1-2.68,2.1-4,3.17-4,3.18-8,6.4-11.86,9.73-1.29,1.11-2.59,2.21-3.87,3.35a.76.76,0,0,1-1.06-.06.77.77,0,0,1,.14-1.13Z"/><path class="cls-6" d="M153,27.17c8.43-5.8,16.5-12.08,24.56-18.38,3.78-3,7.21-2.73,9.35,1.91a1.43,1.43,0,0,1-2.61,1.15,1.4,1.4,0,0,1-.11-.72c.23-2.52-1.76-4.24-4.25-3.27s-4.24,2.78-6.28,4.25c-1.34,1.05-2.68,2.1-4,3.17-4,3.18-8,6.4-11.86,9.73-1.29,1.1-2.59,2.21-3.86,3.35a.76.76,0,1,1-.93-1.19Z"/></svg>